<svg xmlns="http://www.w3.org/2000/svg" xmlns:xlink="http://www.w3.org/1999/xlink" width="1300" zoomAndPan="magnify" viewBox="0 0 974.88 225" height="300" preserveAspectRatio="xMidYMid meet" version="1.0"><defs><g/><clipPath id="47aae808f2"><path d="M 41 32 L 175 32 L 175 167 L 41 167 Z M 41 32 " clip-rule="nonzero"/></clipPath><clipPath id="d61d81670c"><path d="M 232.902344 28.140625 L 238.25 202.035156 L 5.140625 209.203125 L -0.207031 35.308594 Z M 232.902344 28.140625 " clip-rule="nonzero"/></clipPath><clipPath id="95e0fce8ab"><path d="M 5.363281 209.5625 L 0.015625 35.664062 L 233.125 28.496094 L 238.472656 202.390625 Z M 5.363281 209.5625 " clip-rule="nonzero"/></clipPath><clipPath id="eea601e219"><path d="M 150.65625 133.667969 L 157.707031 144.179688 C 166.457031 134.546875 172.257812 122.527344 174.347656 109.667969 L 161.777344 110.511719 C 159.945312 118.988281 156.125 126.9375 150.65625 133.660156 Z M 44.773438 120.707031 C 56.71875 155.679688 94.894531 174.414062 129.867188 162.457031 C 130.730469 162.164062 131.574219 161.84375 132.414062 161.519531 L 125.410156 151.074219 C 96.945312 160.484375 66.046875 145.191406 56.335938 116.761719 C 46.558594 88.15625 61.882812 56.9375 90.488281 47.164062 C 118.621094 37.554688 149.273438 52.226562 159.566406 79.925781 L 172.167969 79.078125 C 171.988281 78.507812 171.820312 77.945312 171.628906 77.371094 C 159.683594 42.398438 121.507812 23.664062 86.535156 35.621094 C 51.5625 47.566406 32.828125 85.742188 44.78125 120.714844 Z M 44.773438 120.707031 " clip-rule="nonzero"/></clipPath><linearGradient x1="159.817772" gradientTransform="matrix(-0.0257111, -0.836057, 0.836057, -0.0257111, 5.805023, 209.547387)" y1="17.505976" x2="99.340376" gradientUnits="userSpaceOnUse" y2="226.447258" id="cbaced3794"><stop stop-opacity="1" stop-color="rgb(4.699707%, 34.498596%, 58.799744%)" offset="0"/><stop stop-opacity="1" stop-color="rgb(4.699707%, 34.498596%, 58.799744%)" offset="0.229524"/><stop stop-opacity="1" stop-color="rgb(4.699707%, 34.498596%, 58.799744%)" offset="0.25"/><stop stop-opacity="1" stop-color="rgb(4.699707%, 34.498596%, 58.799744%)" offset="0.3125"/><stop stop-opacity="1" stop-color="rgb(4.699707%, 34.498596%, 58.799744%)" offset="0.34375"/><stop stop-opacity="1" stop-color="rgb(4.699707%, 34.498596%, 58.799744%)" offset="0.359375"/><stop stop-opacity="1" stop-color="rgb(4.71344%, 34.101868%, 58.605957%)" offset="0.363281"/><stop stop-opacity="1" stop-color="rgb(4.727173%, 33.705139%, 58.41217%)" offset="0.367187"/><stop stop-opacity="1" stop-color="rgb(4.743958%, 33.226013%, 58.178711%)" offset="0.371094"/><stop stop-opacity="1" stop-color="rgb(4.760742%, 32.746887%, 57.945251%)" offset="0.375"/><stop stop-opacity="1" stop-color="rgb(4.776001%, 32.267761%, 57.711792%)" offset="0.378906"/><stop stop-opacity="1" stop-color="rgb(4.792786%, 31.788635%, 57.479858%)" offset="0.382812"/><stop stop-opacity="1" stop-color="rgb(4.80957%, 31.309509%, 57.246399%)" offset="0.386719"/><stop stop-opacity="1" stop-color="rgb(4.826355%, 30.830383%, 57.012939%)" offset="0.390625"/><stop stop-opacity="1" stop-color="rgb(4.84314%, 30.351257%, 56.77948%)" offset="0.394531"/><stop stop-opacity="1" stop-color="rgb(4.859924%, 29.872131%, 56.546021%)" offset="0.398438"/><stop stop-opacity="1" stop-color="rgb(4.876709%, 29.393005%, 56.312561%)" offset="0.402344"/><stop stop-opacity="1" stop-color="rgb(4.893494%, 28.915405%, 56.079102%)" offset="0.40625"/><stop stop-opacity="1" stop-color="rgb(4.910278%, 28.436279%, 55.845642%)" offset="0.410156"/><stop stop-opacity="1" stop-color="rgb(4.927063%, 27.957153%, 55.613708%)" offset="0.414062"/><stop stop-opacity="1" stop-color="rgb(4.943848%, 27.478027%, 55.380249%)" offset="0.417969"/><stop stop-opacity="1" stop-color="rgb(4.960632%, 26.998901%, 55.14679%)" offset="0.421875"/><stop stop-opacity="1" stop-color="rgb(4.977417%, 26.519775%, 54.91333%)" offset="0.425781"/><stop stop-opacity="1" stop-color="rgb(4.994202%, 26.040649%, 54.679871%)" offset="0.429687"/><stop stop-opacity="1" stop-color="rgb(5.00946%, 25.561523%, 54.446411%)" offset="0.433594"/><stop stop-opacity="1" stop-color="rgb(5.026245%, 25.082397%, 54.214478%)" offset="0.4375"/><stop stop-opacity="1" stop-color="rgb(5.04303%, 24.603271%, 53.981018%)" offset="0.441406"/><stop stop-opacity="1" stop-color="rgb(5.059814%, 24.125671%, 53.747559%)" offset="0.445312"/><stop stop-opacity="1" stop-color="rgb(5.076599%, 23.646545%, 53.514099%)" offset="0.449219"/><stop stop-opacity="1" stop-color="rgb(5.093384%, 23.167419%, 53.28064%)" offset="0.453125"/><stop stop-opacity="1" stop-color="rgb(5.110168%, 22.688293%, 53.04718%)" offset="0.457031"/><stop stop-opacity="1" stop-color="rgb(5.126953%, 22.209167%, 52.813721%)" offset="0.460938"/><stop stop-opacity="1" stop-color="rgb(5.143738%, 21.730042%, 52.580261%)" offset="0.464844"/><stop stop-opacity="1" stop-color="rgb(5.160522%, 21.250916%, 52.348328%)" offset="0.46875"/><stop stop-opacity="1" stop-color="rgb(5.177307%, 20.77179%, 52.114868%)" offset="0.472656"/><stop stop-opacity="1" stop-color="rgb(5.194092%, 20.292664%, 51.881409%)" offset="0.476562"/><stop stop-opacity="1" stop-color="rgb(5.209351%, 19.813538%, 51.647949%)" offset="0.480469"/><stop stop-opacity="1" stop-color="rgb(5.226135%, 19.335938%, 51.41449%)" offset="0.484375"/><stop stop-opacity="1" stop-color="rgb(5.24292%, 18.856812%, 51.18103%)" offset="0.488281"/><stop stop-opacity="1" stop-color="rgb(5.259705%, 18.377686%, 50.949097%)" offset="0.492187"/><stop stop-opacity="1" stop-color="rgb(5.276489%, 17.89856%, 50.715637%)" offset="0.496094"/><stop stop-opacity="1" stop-color="rgb(5.293274%, 17.419434%, 50.482178%)" offset="0.5"/><stop stop-opacity="1" stop-color="rgb(5.310059%, 16.940308%, 50.248718%)" offset="0.503906"/><stop stop-opacity="1" stop-color="rgb(5.326843%, 16.461182%, 50.015259%)" offset="0.507812"/><stop stop-opacity="1" stop-color="rgb(5.343628%, 15.982056%, 49.781799%)" offset="0.511719"/><stop stop-opacity="1" stop-color="rgb(5.360413%, 15.50293%, 49.54834%)" offset="0.515625"/><stop stop-opacity="1" stop-color="rgb(5.377197%, 15.023804%, 49.31488%)" offset="0.519531"/><stop stop-opacity="1" stop-color="rgb(5.393982%, 14.544678%, 49.082947%)" offset="0.523438"/><stop stop-opacity="1" stop-color="rgb(5.409241%, 14.065552%, 48.849487%)" offset="0.527344"/><stop stop-opacity="1" stop-color="rgb(5.426025%, 13.587952%, 48.616028%)" offset="0.53125"/><stop stop-opacity="1" stop-color="rgb(5.44281%, 13.108826%, 48.382568%)" offset="0.535156"/><stop stop-opacity="1" stop-color="rgb(5.459595%, 12.6297%, 48.149109%)" offset="0.539062"/><stop stop-opacity="1" stop-color="rgb(5.476379%, 12.150574%, 47.915649%)" offset="0.542969"/><stop stop-opacity="1" stop-color="rgb(5.493164%, 11.671448%, 47.683716%)" offset="0.546875"/><stop stop-opacity="1" stop-color="rgb(5.509949%, 11.192322%, 47.450256%)" offset="0.550781"/><stop stop-opacity="1" stop-color="rgb(5.526733%, 10.713196%, 47.216797%)" offset="0.554688"/><stop stop-opacity="1" stop-color="rgb(5.543518%, 10.23407%, 46.983337%)" offset="0.558594"/><stop stop-opacity="1" stop-color="rgb(5.560303%, 9.754944%, 46.749878%)" offset="0.5625"/><stop stop-opacity="1" stop-color="rgb(5.577087%, 9.275818%, 46.516418%)" offset="0.566406"/><stop stop-opacity="1" stop-color="rgb(5.593872%, 8.798218%, 46.282959%)" offset="0.570312"/><stop stop-opacity="1" stop-color="rgb(5.609131%, 8.319092%, 46.0495%)" offset="0.574219"/><stop stop-opacity="1" stop-color="rgb(5.625916%, 7.839966%, 45.817566%)" offset="0.578125"/><stop stop-opacity="1" stop-color="rgb(5.6427%, 7.36084%, 45.584106%)" offset="0.582031"/><stop stop-opacity="1" stop-color="rgb(5.659485%, 6.881714%, 45.350647%)" offset="0.585937"/><stop stop-opacity="1" stop-color="rgb(5.67627%, 6.402588%, 45.117188%)" offset="0.589844"/><stop stop-opacity="1" stop-color="rgb(5.693054%, 5.923462%, 44.883728%)" offset="0.59375"/><stop stop-opacity="1" stop-color="rgb(5.709839%, 5.444336%, 44.650269%)" offset="0.597656"/><stop stop-opacity="1" stop-color="rgb(5.726624%, 4.96521%, 44.418335%)" offset="0.601562"/><stop stop-opacity="1" stop-color="rgb(5.743408%, 4.486084%, 44.184875%)" offset="0.605469"/><stop stop-opacity="1" stop-color="rgb(5.760193%, 4.008484%, 43.951416%)" offset="0.609375"/><stop stop-opacity="1" stop-color="rgb(5.776978%, 3.529358%, 43.717957%)" offset="0.613281"/><stop stop-opacity="1" stop-color="rgb(5.793762%, 3.050232%, 43.484497%)" offset="0.617188"/><stop stop-opacity="1" stop-color="rgb(5.809021%, 2.571106%, 43.251038%)" offset="0.621094"/><stop stop-opacity="1" stop-color="rgb(5.825806%, 2.09198%, 43.017578%)" offset="0.625"/><stop stop-opacity="1" stop-color="rgb(5.84259%, 1.612854%, 42.784119%)" offset="0.628906"/><stop stop-opacity="1" stop-color="rgb(5.859375%, 1.133728%, 42.552185%)" offset="0.632812"/><stop stop-opacity="1" stop-color="rgb(5.87616%, 0.654602%, 42.318726%)" offset="0.636719"/><stop stop-opacity="1" stop-color="rgb(5.892944%, 0.175476%, 42.085266%)" offset="0.640625"/><stop stop-opacity="1" stop-color="rgb(5.895996%, 0.0869751%, 42.042542%)" offset="0.65625"/><stop stop-opacity="1" stop-color="rgb(5.899048%, 0%, 41.999817%)" offset="0.6875"/><stop stop-opacity="1" stop-color="rgb(5.899048%, 0%, 41.999817%)" offset="0.75"/><stop stop-opacity="1" stop-color="rgb(5.899048%, 0%, 41.999817%)" offset="0.770476"/><stop stop-opacity="1" stop-color="rgb(5.899048%, 0%, 41.999817%)" offset="1"/></linearGradient><clipPath id="213288e1b7"><path d="M 102 84 L 235 84 L 235 205 L 102 205 Z M 102 84 " clip-rule="nonzero"/></clipPath><clipPath id="62a0cc759e"><path d="M 232.902344 28.140625 L 238.25 202.035156 L 5.140625 209.203125 L -0.207031 35.308594 Z M 232.902344 28.140625 " clip-rule="nonzero"/></clipPath><clipPath id="6f1bad150f"><path d="M 5.363281 209.5625 L 0.015625 35.664062 L 233.125 28.496094 L 238.472656 202.390625 Z M 5.363281 209.5625 " clip-rule="nonzero"/></clipPath><clipPath id="ce9b1e5f6f"><path d="M 234.019531 88.667969 C 234.589844 90.347656 234.496094 92.226562 233.695312 93.859375 L 181.332031 200.542969 C 180.269531 202.710938 178.113281 204.15625 175.699219 204.324219 C 173.285156 204.488281 170.957031 203.339844 169.617188 201.328125 L 103.398438 102.644531 C 102.058594 100.640625 101.878906 98.046875 102.941406 95.878906 C 104.003906 93.710938 106.160156 92.265625 108.566406 92.097656 L 227.144531 84.09375 C 229.554688 83.933594 231.882812 85.078125 233.226562 87.078125 C 233.558594 87.570312 233.820312 88.105469 234.003906 88.652344 Z M 177.625 180.398438 L 215.488281 103.230469 C 216.867188 100.417969 214.691406 97.171875 211.566406 97.382812 L 125.808594 103.175781 C 122.6875 103.390625 120.960938 106.898438 122.707031 109.496094 L 170.59375 180.871094 C 172.339844 183.472656 176.238281 183.210938 177.617188 180.398438 Z M 179.757812 194.515625 Z M 113.550781 95.835938 Z M 113.550781 95.835938 " clip-rule="nonzero"/></clipPath><linearGradient x1="13.340732" gradientTransform="matrix(-0.0257111, -0.836057, 0.836057, -0.0257111, 5.805023, 209.547387)" y1="293.709263" x2="169.316831" gradientUnits="userSpaceOnUse" y2="137.733173" id="e6ce07e016"><stop stop-opacity="1" stop-color="rgb(61.999512%, 68.598938%, 50.999451%)" offset="0"/><stop stop-opacity="1" stop-color="rgb(61.999512%, 68.598938%, 50.999451%)" offset="0.477428"/><stop stop-opacity="1" stop-color="rgb(61.999512%, 68.598938%, 50.999451%)" offset="0.5"/><stop stop-opacity="1" stop-color="rgb(61.999512%, 68.598938%, 50.999451%)" offset="0.515625"/><stop stop-opacity="1" stop-color="rgb(61.999512%, 68.598938%, 50.999451%)" offset="0.522572"/><stop stop-opacity="1" stop-color="rgb(61.999512%, 68.598938%, 50.999451%)" offset="0.523438"/><stop stop-opacity="1" stop-color="rgb(61.282349%, 67.721558%, 50.883484%)" offset="0.527344"/><stop stop-opacity="1" stop-color="rgb(60.565186%, 66.845703%, 50.769043%)" offset="0.53125"/><stop stop-opacity="1" stop-color="rgb(59.844971%, 65.965271%, 50.653076%)" offset="0.535156"/><stop stop-opacity="1" stop-color="rgb(59.124756%, 65.084839%, 50.538635%)" offset="0.539062"/><stop stop-opacity="1" stop-color="rgb(58.404541%, 64.204407%, 50.422668%)" offset="0.542969"/><stop stop-opacity="1" stop-color="rgb(57.685852%, 63.323975%, 50.306702%)" offset="0.546875"/><stop stop-opacity="1" stop-color="rgb(56.965637%, 62.443542%, 50.190735%)" offset="0.550781"/><stop stop-opacity="1" stop-color="rgb(56.245422%, 61.56311%, 50.076294%)" offset="0.554688"/><stop stop-opacity="1" stop-color="rgb(55.525208%, 60.682678%, 49.960327%)" offset="0.558594"/><stop stop-opacity="1" stop-color="rgb(54.806519%, 59.802246%, 49.845886%)" offset="0.5625"/><stop stop-opacity="1" stop-color="rgb(54.086304%, 58.921814%, 49.729919%)" offset="0.566406"/><stop stop-opacity="1" stop-color="rgb(53.366089%, 58.042908%, 49.613953%)" offset="0.570312"/><stop stop-opacity="1" stop-color="rgb(52.645874%, 57.162476%, 49.497986%)" offset="0.574219"/><stop stop-opacity="1" stop-color="rgb(51.925659%, 56.282043%, 49.383545%)" offset="0.578125"/><stop stop-opacity="1" stop-color="rgb(51.205444%, 55.401611%, 49.267578%)" offset="0.582031"/><stop stop-opacity="1" stop-color="rgb(50.486755%, 54.521179%, 49.151611%)" offset="0.585938"/><stop stop-opacity="1" stop-color="rgb(49.766541%, 53.640747%, 49.035645%)" offset="0.589844"/><stop stop-opacity="1" stop-color="rgb(49.046326%, 52.760315%, 48.921204%)" offset="0.59375"/><stop stop-opacity="1" stop-color="rgb(48.326111%, 51.879883%, 48.805237%)" offset="0.597656"/><stop stop-opacity="1" stop-color="rgb(47.605896%, 50.999451%, 48.690796%)" offset="0.601562"/><stop stop-opacity="1" stop-color="rgb(46.885681%, 50.119019%, 48.574829%)" offset="0.605469"/><stop stop-opacity="1" stop-color="rgb(46.166992%, 49.238586%, 48.458862%)" offset="0.609375"/><stop stop-opacity="1" stop-color="rgb(45.446777%, 48.358154%, 48.342896%)" offset="0.613281"/><stop stop-opacity="1" stop-color="rgb(44.726562%, 47.477722%, 48.228455%)" offset="0.617188"/><stop stop-opacity="1" stop-color="rgb(44.006348%, 46.59729%, 48.112488%)" offset="0.621094"/><stop stop-opacity="1" stop-color="rgb(43.287659%, 45.716858%, 47.996521%)" offset="0.625"/><stop stop-opacity="1" stop-color="rgb(42.567444%, 44.836426%, 47.880554%)" offset="0.628906"/><stop stop-opacity="1" stop-color="rgb(41.847229%, 43.95752%, 47.766113%)" offset="0.632812"/><stop stop-opacity="1" stop-color="rgb(41.127014%, 43.077087%, 47.650146%)" offset="0.636719"/><stop stop-opacity="1" stop-color="rgb(40.406799%, 42.196655%, 47.535706%)" offset="0.640625"/><stop stop-opacity="1" stop-color="rgb(39.686584%, 41.316223%, 47.419739%)" offset="0.644531"/><stop stop-opacity="1" stop-color="rgb(38.967896%, 40.435791%, 47.303772%)" offset="0.648438"/><stop stop-opacity="1" stop-color="rgb(38.247681%, 39.555359%, 47.187805%)" offset="0.652344"/><stop stop-opacity="1" stop-color="rgb(37.527466%, 38.674927%, 47.073364%)" offset="0.65625"/><stop stop-opacity="1" stop-color="rgb(36.807251%, 37.794495%, 46.957397%)" offset="0.660156"/><stop stop-opacity="1" stop-color="rgb(36.087036%, 36.914062%, 46.842957%)" offset="0.664062"/><stop stop-opacity="1" stop-color="rgb(35.366821%, 36.03363%, 46.72699%)" offset="0.667969"/><stop stop-opacity="1" stop-color="rgb(34.648132%, 35.153198%, 46.611023%)" offset="0.671875"/><stop stop-opacity="1" stop-color="rgb(33.927917%, 34.272766%, 46.495056%)" offset="0.675781"/><stop stop-opacity="1" stop-color="rgb(33.207703%, 33.392334%, 46.380615%)" offset="0.679687"/><stop stop-opacity="1" stop-color="rgb(32.487488%, 32.511902%, 46.264648%)" offset="0.683594"/><stop stop-opacity="1" stop-color="rgb(31.768799%, 31.63147%, 46.148682%)" offset="0.6875"/><stop stop-opacity="1" stop-color="rgb(31.048584%, 30.751038%, 46.032715%)" offset="0.691406"/><stop stop-opacity="1" stop-color="rgb(30.328369%, 29.872131%, 45.918274%)" offset="0.695312"/><stop stop-opacity="1" stop-color="rgb(29.608154%, 28.991699%, 45.802307%)" offset="0.699219"/><stop stop-opacity="1" stop-color="rgb(28.887939%, 28.111267%, 45.687866%)" offset="0.703125"/><stop stop-opacity="1" stop-color="rgb(28.167725%, 27.230835%, 45.571899%)" offset="0.707031"/><stop stop-opacity="1" stop-color="rgb(27.449036%, 26.350403%, 45.455933%)" offset="0.710938"/><stop stop-opacity="1" stop-color="rgb(26.728821%, 25.469971%, 45.339966%)" offset="0.714844"/><stop stop-opacity="1" stop-color="rgb(26.008606%, 24.589539%, 45.225525%)" offset="0.71875"/><stop stop-opacity="1" stop-color="rgb(25.288391%, 23.709106%, 45.109558%)" offset="0.722656"/><stop stop-opacity="1" stop-color="rgb(24.568176%, 22.828674%, 44.995117%)" offset="0.726562"/><stop stop-opacity="1" stop-color="rgb(23.847961%, 21.948242%, 44.87915%)" offset="0.730469"/><stop stop-opacity="1" stop-color="rgb(23.129272%, 21.06781%, 44.763184%)" offset="0.734375"/><stop stop-opacity="1" stop-color="rgb(22.409058%, 20.187378%, 44.647217%)" offset="0.738281"/><stop stop-opacity="1" stop-color="rgb(21.688843%, 19.306946%, 44.532776%)" offset="0.742188"/><stop stop-opacity="1" stop-color="rgb(20.968628%, 18.426514%, 44.416809%)" offset="0.746094"/><stop stop-opacity="1" stop-color="rgb(20.249939%, 17.546082%, 44.300842%)" offset="0.75"/><stop stop-opacity="1" stop-color="rgb(19.529724%, 16.665649%, 44.184875%)" offset="0.753906"/><stop stop-opacity="1" stop-color="rgb(18.809509%, 15.786743%, 44.070435%)" offset="0.757812"/><stop stop-opacity="1" stop-color="rgb(18.089294%, 14.906311%, 43.954468%)" offset="0.761719"/><stop stop-opacity="1" stop-color="rgb(17.36908%, 14.025879%, 43.840027%)" offset="0.765625"/><stop stop-opacity="1" stop-color="rgb(16.648865%, 13.145447%, 43.72406%)" offset="0.769531"/><stop stop-opacity="1" stop-color="rgb(15.930176%, 12.265015%, 43.608093%)" offset="0.773438"/><stop stop-opacity="1" stop-color="rgb(15.209961%, 11.384583%, 43.492126%)" offset="0.777344"/><stop stop-opacity="1" stop-color="rgb(14.489746%, 10.50415%, 43.377686%)" offset="0.78125"/><stop stop-opacity="1" stop-color="rgb(13.769531%, 9.623718%, 43.261719%)" offset="0.785156"/><stop stop-opacity="1" stop-color="rgb(13.049316%, 8.743286%, 43.145752%)" offset="0.789062"/><stop stop-opacity="1" stop-color="rgb(12.329102%, 7.862854%, 43.029785%)" offset="0.792969"/><stop stop-opacity="1" stop-color="rgb(11.610413%, 6.982422%, 42.915344%)" offset="0.796875"/><stop stop-opacity="1" stop-color="rgb(10.890198%, 6.10199%, 42.799377%)" offset="0.800781"/><stop stop-opacity="1" stop-color="rgb(10.169983%, 5.221558%, 42.684937%)" offset="0.804687"/><stop stop-opacity="1" stop-color="rgb(9.449768%, 4.341125%, 42.56897%)" offset="0.808594"/><stop stop-opacity="1" stop-color="rgb(8.731079%, 3.460693%, 42.453003%)" offset="0.8125"/><stop stop-opacity="1" stop-color="rgb(8.010864%, 2.580261%, 42.337036%)" offset="0.816406"/><stop stop-opacity="1" stop-color="rgb(7.290649%, 1.701355%, 42.222595%)" offset="0.820312"/><stop stop-opacity="1" stop-color="rgb(6.594849%, 0.849915%, 42.111206%)" offset="0.824219"/><stop stop-opacity="1" stop-color="rgb(5.899048%, 0%, 41.999817%)" offset="0.828125"/><stop stop-opacity="1" stop-color="rgb(5.899048%, 0%, 41.999817%)" offset="0.84375"/><stop stop-opacity="1" stop-color="rgb(5.899048%, 0%, 41.999817%)" offset="0.875"/><stop stop-opacity="1" stop-color="rgb(5.899048%, 0%, 41.999817%)" offset="1"/></linearGradient></defs><g fill="#0f006b" fill-opacity="1"><g transform="translate(320.939971, 141.564643)"><g><path d="M 60.9375 1.734375 C 50.445312 1.734375 40.988281 -0.523438 32.5625 -5.046875 C 24.132812 -9.578125 17.535156 -15.8125 12.765625 -23.75 C 8.003906 -31.695312 5.625 -40.628906 5.625 -50.546875 C 5.625 -60.460938 8.003906 -69.390625 12.765625 -77.328125 C 17.535156 -85.273438 24.132812 -91.507812 32.5625 -96.03125 C 40.988281 -100.550781 50.445312 -102.8125 60.9375 -102.8125 C 71.4375 -102.8125 80.875 -100.550781 89.25 -96.03125 C 97.625 -91.507812 104.21875 -85.273438 109.03125 -77.328125 C 113.84375 -69.390625 116.25 -60.460938 116.25 -50.546875 C 116.25 -40.628906 113.84375 -31.695312 109.03125 -23.75 C 104.21875 -15.8125 97.625 -9.578125 89.25 -5.046875 C 80.875 -0.523438 71.4375 1.734375 60.9375 1.734375 Z M 60.9375 -18.1875 C 66.90625 -18.1875 72.296875 -19.554688 77.109375 -22.296875 C 81.921875 -25.046875 85.695312 -28.875 88.4375 -33.78125 C 91.1875 -38.695312 92.5625 -44.285156 92.5625 -50.546875 C 92.5625 -56.796875 91.1875 -62.375 88.4375 -67.28125 C 85.695312 -72.195312 81.921875 -76.023438 77.109375 -78.765625 C 72.296875 -81.515625 66.90625 -82.890625 60.9375 -82.890625 C 54.96875 -82.890625 49.578125 -81.515625 44.765625 -78.765625 C 39.953125 -76.023438 36.171875 -72.195312 33.421875 -67.28125 C 30.679688 -62.375 29.3125 -56.796875 29.3125 -50.546875 C 29.3125 -44.285156 30.679688 -38.695312 33.421875 -33.78125 C 36.171875 -28.875 39.953125 -25.046875 44.765625 -22.296875 C 49.578125 -19.554688 54.96875 -18.1875 60.9375 -18.1875 Z M 60.9375 -18.1875 "/></g></g></g><g fill="#0f006b" fill-opacity="1"><g transform="translate(448.871086, 141.564643)"><g><path d="M 57.625 -78.84375 C 67.25 -78.84375 75.019531 -75.953125 80.9375 -70.171875 C 86.863281 -64.398438 89.828125 -55.835938 89.828125 -44.484375 L 89.828125 0 L 67.296875 0 L 67.296875 -41.015625 C 67.296875 -47.171875 65.945312 -51.765625 63.25 -54.796875 C 60.550781 -57.828125 56.648438 -59.34375 51.546875 -59.34375 C 45.867188 -59.34375 41.34375 -57.585938 37.96875 -54.078125 C 34.601562 -50.566406 32.921875 -45.34375 32.921875 -38.40625 L 32.921875 0 L 10.390625 0 L 10.390625 -77.6875 L 31.90625 -77.6875 L 31.90625 -68.59375 C 34.894531 -71.863281 38.601562 -74.390625 43.03125 -76.171875 C 47.457031 -77.953125 52.320312 -78.84375 57.625 -78.84375 Z M 57.625 -78.84375 "/></g></g></g><g fill="#0f006b" fill-opacity="1"><g transform="translate(554.710384, 141.564643)"><g><path d="M 60.359375 1.734375 C 50.054688 1.734375 40.738281 -0.503906 32.40625 -4.984375 C 24.082031 -9.460938 17.535156 -15.671875 12.765625 -23.609375 C 8.003906 -31.554688 5.625 -40.535156 5.625 -50.546875 C 5.625 -60.554688 8.003906 -69.53125 12.765625 -77.46875 C 17.535156 -85.414062 24.082031 -91.625 32.40625 -96.09375 C 40.738281 -100.570312 50.101562 -102.8125 60.5 -102.8125 C 69.257812 -102.8125 77.175781 -101.269531 84.25 -98.1875 C 91.332031 -95.113281 97.28125 -90.6875 102.09375 -84.90625 L 87.078125 -71.046875 C 80.242188 -78.941406 71.769531 -82.890625 61.65625 -82.890625 C 55.40625 -82.890625 49.820312 -81.515625 44.90625 -78.765625 C 40 -76.023438 36.171875 -72.195312 33.421875 -67.28125 C 30.679688 -62.375 29.3125 -56.796875 29.3125 -50.546875 C 29.3125 -44.285156 30.679688 -38.695312 33.421875 -33.78125 C 36.171875 -28.875 40 -25.046875 44.90625 -22.296875 C 49.820312 -19.554688 55.40625 -18.1875 61.65625 -18.1875 C 71.769531 -18.1875 80.242188 -22.1875 87.078125 -30.1875 L 102.09375 -16.3125 C 97.28125 -10.445312 91.3125 -5.972656 84.1875 -2.890625 C 77.0625 0.191406 69.117188 1.734375 60.359375 1.734375 Z M 60.359375 1.734375 "/></g></g></g><g fill="#0f006b" fill-opacity="1"><g transform="translate(666.61411, 141.564643)"><g><path d="M 10.390625 -107.15625 L 32.921875 -107.15625 L 32.921875 0 L 10.390625 0 Z M 10.390625 -107.15625 "/></g></g></g><g fill="#0f006b" fill-opacity="1"><g transform="translate(716.14092, 141.564643)"><g><path d="M 10.390625 -77.6875 L 32.921875 -77.6875 L 32.921875 0 L 10.390625 0 Z M 21.65625 -88.515625 C 17.519531 -88.515625 14.148438 -89.71875 11.546875 -92.125 C 8.953125 -94.53125 7.65625 -97.515625 7.65625 -101.078125 C 7.65625 -104.640625 8.953125 -107.625 11.546875 -110.03125 C 14.148438 -112.4375 17.519531 -113.640625 21.65625 -113.640625 C 25.800781 -113.640625 29.171875 -112.484375 31.765625 -110.171875 C 34.367188 -107.867188 35.671875 -104.984375 35.671875 -101.515625 C 35.671875 -97.765625 34.367188 -94.660156 31.765625 -92.203125 C 29.171875 -89.742188 25.800781 -88.515625 21.65625 -88.515625 Z M 21.65625 -88.515625 "/></g></g></g><g fill="#0f006b" fill-opacity="1"><g transform="translate(765.66773, 141.564643)"><g><path d="M 47.9375 1.15625 C 39.664062 1.15625 32.226562 -0.550781 25.625 -3.96875 C 19.03125 -7.382812 13.878906 -12.125 10.171875 -18.1875 C 6.472656 -24.257812 4.625 -31.144531 4.625 -38.84375 C 4.625 -46.539062 6.472656 -53.421875 10.171875 -59.484375 C 13.878906 -65.554688 19.03125 -70.300781 25.625 -73.71875 C 32.226562 -77.132812 39.664062 -78.84375 47.9375 -78.84375 C 56.125 -78.84375 63.273438 -77.132812 69.390625 -73.71875 C 75.503906 -70.300781 79.957031 -65.414062 82.75 -59.0625 L 65.265625 -49.671875 C 61.222656 -56.796875 55.398438 -60.359375 47.796875 -60.359375 C 41.921875 -60.359375 37.054688 -58.429688 33.203125 -54.578125 C 29.359375 -50.734375 27.4375 -45.488281 27.4375 -38.84375 C 27.4375 -32.195312 29.359375 -26.945312 33.203125 -23.09375 C 37.054688 -19.25 41.921875 -17.328125 47.796875 -17.328125 C 55.492188 -17.328125 61.316406 -20.890625 65.265625 -28.015625 L 82.75 -18.484375 C 79.957031 -12.316406 75.503906 -7.5 69.390625 -4.03125 C 63.273438 -0.570312 56.125 1.15625 47.9375 1.15625 Z M 47.9375 1.15625 "/></g></g></g><g fill="#0f006b" fill-opacity="1"><g transform="translate(857.067944, 141.564643)"><g><path d="M 43.75 -30.46875 L 32.921875 -19.78125 L 32.921875 0 L 10.390625 0 L 10.390625 -107.15625 L 32.921875 -107.15625 L 32.921875 -46.5 L 65.84375 -77.6875 L 92.703125 -77.6875 L 60.359375 -44.765625 L 95.59375 0 L 68.296875 0 Z M 43.75 -30.46875 "/></g></g></g><g fill="#0c5896" fill-opacity="1"><g transform="translate(440.262118, 211.410027)"><g><path d="M 11.125 -33.109375 L 11.125 0 L 2.140625 0 L 2.140625 -33.109375 Z M 11.125 -33.109375 "/></g></g></g><g fill="#0c5896" fill-opacity="1"><g transform="translate(461.674124, 211.410027)"><g><path d="M 30.78125 -33.109375 L 30.78125 0 L 23.28125 0 L 11.3125 -17.390625 L 11.125 -17.390625 L 11.125 0 L 2.140625 0 L 2.140625 -33.109375 L 9.765625 -33.109375 L 21.53125 -15.78125 L 21.796875 -15.78125 L 21.796875 -33.109375 Z M 30.78125 -33.109375 "/></g></g></g><g fill="#0c5896" fill-opacity="1"><g transform="translate(502.749567, 211.410027)"><g><path d="M 2.140625 0 L 2.140625 -33.109375 L 25.421875 -33.109375 L 25.421875 -25.875 L 11.125 -25.875 L 11.125 -20.171875 L 24 -20.171875 L 24 -12.9375 L 11.125 -12.9375 L 11.125 0 Z M 2.140625 0 "/></g></g></g><g fill="#0c5896" fill-opacity="1"><g transform="translate(537.486144, 211.410027)"><g><path d="M 34.21875 -16.5625 C 34.21875 -12.875 33.5 -9.765625 32.0625 -7.234375 C 30.625 -4.703125 28.6875 -2.785156 26.25 -1.484375 C 23.820312 -0.191406 21.109375 0.453125 18.109375 0.453125 C 15.085938 0.453125 12.363281 -0.195312 9.9375 -1.5 C 7.507812 -2.8125 5.578125 -4.734375 4.140625 -7.265625 C 2.710938 -9.796875 2 -12.894531 2 -16.5625 C 2 -20.25 2.710938 -23.351562 4.140625 -25.875 C 5.578125 -28.40625 7.507812 -30.316406 9.9375 -31.609375 C 12.363281 -32.910156 15.085938 -33.5625 18.109375 -33.5625 C 21.109375 -33.5625 23.820312 -32.910156 26.25 -31.609375 C 28.6875 -30.316406 30.625 -28.40625 32.0625 -25.875 C 33.5 -23.351562 34.21875 -20.25 34.21875 -16.5625 Z M 24.96875 -16.5625 C 24.96875 -18.539062 24.703125 -20.210938 24.171875 -21.578125 C 23.648438 -22.941406 22.878906 -23.972656 21.859375 -24.671875 C 20.847656 -25.378906 19.597656 -25.734375 18.109375 -25.734375 C 16.617188 -25.734375 15.363281 -25.378906 14.34375 -24.671875 C 13.332031 -23.972656 12.5625 -22.941406 12.03125 -21.578125 C 11.507812 -20.210938 11.25 -18.539062 11.25 -16.5625 C 11.25 -14.570312 11.507812 -12.894531 12.03125 -11.53125 C 12.5625 -10.164062 13.332031 -9.128906 14.34375 -8.421875 C 15.363281 -7.722656 16.617188 -7.375 18.109375 -7.375 C 19.597656 -7.375 20.847656 -7.722656 21.859375 -8.421875 C 22.878906 -9.128906 23.648438 -10.164062 24.171875 -11.53125 C 24.703125 -12.894531 24.96875 -14.570312 24.96875 -16.5625 Z M 24.96875 -16.5625 "/></g></g></g><g fill="#0c5896" fill-opacity="1"><g transform="translate(581.860388, 211.410027)"><g><path d="M 1.234375 -25.875 L 1.234375 -33.109375 L 30.015625 -33.109375 L 30.015625 -25.875 L 20.046875 -25.875 L 20.046875 0 L 11.1875 0 L 11.1875 -25.875 Z M 1.234375 -25.875 "/></g></g></g><g fill="#0c5896" fill-opacity="1"><g transform="translate(621.254095, 211.410027)"><g><path d="M 2.140625 0 L 2.140625 -33.109375 L 26 -33.109375 L 26 -25.875 L 11.125 -25.875 L 11.125 -20.171875 L 24.765625 -20.171875 L 24.765625 -12.9375 L 11.125 -12.9375 L 11.125 -7.25 L 25.9375 -7.25 L 25.9375 0 Z M 2.140625 0 "/></g></g></g><g fill="#0c5896" fill-opacity="1"><g transform="translate(657.737085, 211.410027)"><g><path d="M 33.046875 -20.703125 L 23.9375 -20.703125 C 23.863281 -21.453125 23.691406 -22.132812 23.421875 -22.75 C 23.148438 -23.363281 22.769531 -23.894531 22.28125 -24.34375 C 21.800781 -24.789062 21.222656 -25.132812 20.546875 -25.375 C 19.867188 -25.613281 19.097656 -25.734375 18.234375 -25.734375 C 16.722656 -25.734375 15.445312 -25.367188 14.40625 -24.640625 C 13.375 -23.910156 12.585938 -22.859375 12.046875 -21.484375 C 11.515625 -20.117188 11.25 -18.476562 11.25 -16.5625 C 11.25 -14.53125 11.519531 -12.832031 12.0625 -11.46875 C 12.613281 -10.101562 13.40625 -9.078125 14.4375 -8.390625 C 15.46875 -7.710938 16.710938 -7.375 18.171875 -7.375 C 19.003906 -7.375 19.75 -7.476562 20.40625 -7.6875 C 21.0625 -7.894531 21.628906 -8.195312 22.109375 -8.59375 C 22.597656 -9 22.992188 -9.484375 23.296875 -10.046875 C 23.609375 -10.609375 23.820312 -11.25 23.9375 -11.96875 L 33.046875 -11.90625 C 32.941406 -10.5 32.546875 -9.070312 31.859375 -7.625 C 31.179688 -6.175781 30.21875 -4.835938 28.96875 -3.609375 C 27.726562 -2.390625 26.191406 -1.40625 24.359375 -0.65625 C 22.535156 0.0820312 20.410156 0.453125 17.984375 0.453125 C 14.941406 0.453125 12.210938 -0.195312 9.796875 -1.5 C 7.390625 -2.800781 5.488281 -4.71875 4.09375 -7.25 C 2.695312 -9.789062 2 -12.894531 2 -16.5625 C 2 -20.25 2.710938 -23.351562 4.140625 -25.875 C 5.566406 -28.40625 7.484375 -30.316406 9.890625 -31.609375 C 12.304688 -32.910156 15.003906 -33.5625 17.984375 -33.5625 C 20.066406 -33.5625 21.988281 -33.273438 23.75 -32.703125 C 25.507812 -32.140625 27.050781 -31.3125 28.375 -30.21875 C 29.695312 -29.125 30.765625 -27.773438 31.578125 -26.171875 C 32.390625 -24.578125 32.878906 -22.753906 33.046875 -20.703125 Z M 33.046875 -20.703125 "/></g></g></g><g fill="#0c5896" fill-opacity="1"><g transform="translate(700.882359, 211.410027)"><g><path d="M 2.140625 0 L 2.140625 -33.109375 L 11.125 -33.109375 L 11.125 -20.171875 L 23.03125 -20.171875 L 23.03125 -33.109375 L 32.015625 -33.109375 L 32.015625 0 L 23.03125 0 L 23.03125 -12.9375 L 11.125 -12.9375 L 11.125 0 Z M 2.140625 0 "/></g></g></g><g fill="#0c5896" fill-opacity="1"><g transform="translate(743.186783, 211.410027)"><g/></g></g><g fill="#0c5896" fill-opacity="1"><g transform="translate(760.394457, 211.410027)"><g><path d="M 2.140625 0 L 2.140625 -33.109375 L 11.125 -33.109375 L 11.125 -7.25 L 24.515625 -7.25 L 24.515625 0 Z M 2.140625 0 "/></g></g></g><g fill="#0c5896" fill-opacity="1"><g transform="translate(794.548886, 211.410027)"><g><path d="M 2.140625 0 L 2.140625 -33.109375 L 11.125 -33.109375 L 11.125 -7.25 L 24.515625 -7.25 L 24.515625 0 Z M 2.140625 0 "/></g></g></g><g fill="#0c5896" fill-opacity="1"><g transform="translate(828.703315, 211.410027)"><g><path d="M 2.140625 0 L 2.140625 -33.109375 L 16.421875 -33.109375 C 18.878906 -33.109375 21.03125 -32.625 22.875 -31.65625 C 24.71875 -30.6875 26.148438 -29.320312 27.171875 -27.5625 C 28.203125 -25.8125 28.71875 -23.757812 28.71875 -21.40625 C 28.71875 -19.03125 28.191406 -16.972656 27.140625 -15.234375 C 26.085938 -13.503906 24.613281 -12.171875 22.71875 -11.234375 C 20.832031 -10.296875 18.628906 -9.828125 16.109375 -9.828125 L 7.5625 -9.828125 L 7.5625 -16.8125 L 14.296875 -16.8125 C 15.347656 -16.8125 16.25 -17 17 -17.375 C 17.75 -17.75 18.328125 -18.28125 18.734375 -18.96875 C 19.140625 -19.65625 19.34375 -20.46875 19.34375 -21.40625 C 19.34375 -22.351562 19.140625 -23.160156 18.734375 -23.828125 C 18.328125 -24.503906 17.75 -25.023438 17 -25.390625 C 16.25 -25.753906 15.347656 -25.9375 14.296875 -25.9375 L 11.125 -25.9375 L 11.125 0 Z M 2.140625 0 "/></g></g></g><g clip-path="url(#47aae808f2)"><g clip-path="url(#d61d81670c)"><g clip-path="url(#95e0fce8ab)"><g clip-path="url(#eea601e219)"><path fill="url(#cbaced3794)" d="M 32.960938 178.761719 L 178.828125 174.273438 L 174.210938 24.148438 L 28.34375 28.632812 Z M 32.960938 178.761719 " fill-rule="nonzero"/></g></g></g></g><g clip-path="url(#213288e1b7)"><g clip-path="url(#62a0cc759e)"><g clip-path="url(#6f1bad150f)"><g clip-path="url(#ce9b1e5f6f)"><path fill="url(#e6ce07e016)" d="M 102.003906 208.566406 L 238.292969 204.375 L 234.464844 79.855469 L 98.171875 84.046875 Z M 102.003906 208.566406 " fill-rule="nonzero"/></g></g></g></g></svg>